<svg width="382" height="372" viewBox="0 0 382 372" fill="none" xmlns="http://www.w3.org/2000/svg">
<path d="M115.882 258.896L115.882 372L-0.000244141 372L-0.000248307 258.896L115.882 258.896Z" fill="#333333"/>
<path d="M115.882 258.896L115.882 372L-0.000244141 372L-0.000248307 258.896L115.882 258.896Z" fill="#333333"/>
<path d="M115.882 258.896L115.882 372L-0.000244141 372L-0.000248307 258.896L115.882 258.896Z" fill="#333333"/>
<path d="M247.251 130.974L0.305396 130.974L0.305398 189.872L186.678 189.872L186.678 372L247.251 372L247.251 130.974Z" fill="#333333"/>
<path d="M115.882 258.896L115.882 372L-0.000244141 372L-0.000248307 258.896L115.882 258.896Z" fill="#333333"/>
<path d="M247.251 130.974L0.305396 130.974L0.305398 189.872L186.678 189.872L186.678 372L247.251 372L247.251 130.974Z" fill="#333333"/>
<path d="M115.882 258.896L115.882 372L-0.000244141 372L-0.000248307 258.896L115.882 258.896Z" fill="#C85145"/>
<path d="M247.251 372L247.251 130.974L0.305396 130.974L0.305398 189.872L186.678 189.872L186.678 372L247.251 372Z" fill="#DC9A52"/>
<path d="M381.443 0L0.306444 1.97693e-05L0.306446 65.7477L313.776 65.7477L313.776 372L381.443 372L381.443 0Z" fill="#5F9BA1"/>
</svg>
