<svg width="335" height="85" viewBox="0 0 335 85" fill="none" xmlns="http://www.w3.org/2000/svg">
<path d="M93.3438 63.5154V20.615H104.329C108.516 20.615 111.849 20.9178 114.28 21.4898C116.71 22.0618 118.96 23.1049 120.897 24.6022C125.758 28.2698 128.171 34.1076 128.171 42.0652C128.171 50.0228 125.741 55.8606 120.897 59.5955C118.96 61.0928 116.776 62.1527 114.28 62.7079C111.849 63.263 108.516 63.5827 104.329 63.5827H93.3438V63.5154ZM104.083 54.7502H106.693C110.093 54.7502 112.523 53.8754 113.968 52.1426C115.905 49.7873 116.874 46.4225 116.874 42.0652C116.874 37.7079 115.905 34.3599 113.968 31.9878C112.506 30.255 110.076 29.3801 106.693 29.3801H104.083V54.7502Z" fill="white"/>
<path d="M153.721 19.8575C160.158 19.8575 165.068 21.7923 168.467 25.5776C171.866 29.3629 173.557 34.8979 173.557 42.048C173.557 49.198 171.866 54.8508 168.467 58.653C165.068 62.4383 160.158 64.373 153.656 64.373C147.153 64.373 142.309 62.4383 138.91 58.5857C135.577 54.733 133.869 49.1307 133.869 41.7452C133.869 35.2176 135.38 30.0527 138.418 26.2001C141.882 21.9773 146.973 19.8575 153.705 19.8575H153.721ZM153.721 28.6227C150.93 28.6227 148.812 29.7499 147.35 32.0379C145.84 34.3427 145.101 37.6402 145.101 41.9302C145.101 51.015 147.958 55.6079 153.721 55.6079C156.513 55.6079 158.697 54.4302 160.158 52.1254C161.62 49.8205 162.342 46.4726 162.342 42.048C162.342 37.6234 161.62 34.3427 160.158 32.0379C158.697 29.733 156.579 28.6227 153.721 28.6227Z" fill="white"/>
<path d="M211.062 51.7555L210.996 61.0758C207.712 62.5731 205.594 63.4984 199.403 63.4984C193.213 63.4984 188.238 61.3281 185.15 57.7111C182.063 54.094 180.602 49.8207 180.602 42.351C180.602 34.8813 182.244 29.3631 185.462 25.561C188.681 21.7084 193.41 19.8409 199.535 19.8409C204.51 19.8409 209.371 20.9008 212.638 23.2057L209.124 31.4829C207.006 29.9351 203.722 28.6229 200.93 28.6229C194.855 28.6229 191.768 33.1653 191.768 42.2333C191.768 45.9008 191.883 47.886 192.917 50.2582C194.132 53.1182 197.219 54.1781 201.045 54.1781C204.329 54.1781 210.027 52.4452 211.062 51.7555Z" fill="white"/>
<path d="M215.971 51.2002V42.25H231.57V51.2002H215.971Z" fill="white"/>
<path d="M260.455 54.7499H246.99L245.414 62.9599H233.033L246.744 20.5642H261.194L274.543 62.9094H262.524L260.455 54.7668V54.7499ZM258.698 45.7997L253.969 27.647L248.747 45.867L258.698 45.7997Z" fill="white"/>
<path d="M279.567 63.5154V20.615H290.372V63.5154H279.567Z" fill="white"/>
<path d="M299.649 63.5154V20.615H310.635C314.822 20.615 318.155 20.9178 320.585 21.4898C323.016 22.0618 325.265 23.1049 327.203 24.6022C332.063 28.2698 334.477 34.1076 334.477 42.0652C334.477 50.0228 332.047 55.8606 327.203 59.5955C325.265 61.0928 323.081 62.1527 320.585 62.7079C318.155 63.263 314.822 63.5827 310.635 63.5827H299.649V63.5154ZM310.388 54.7502H312.999C316.398 54.7502 318.828 53.8754 320.273 52.1426C322.211 49.7873 323.18 46.4225 323.18 42.0652C323.18 37.7079 322.211 34.3599 320.273 31.9878C318.812 30.255 316.382 29.3801 312.999 29.3801H310.388V54.7502Z" fill="white"/>
<path d="M25.0182 58.7881H0.0756836V84.3433H25.0182V58.7881Z" fill="#333333"/>
<path d="M25.0182 58.7881H0.0756836V84.3433H25.0182V58.7881Z" fill="#333333"/>
<path d="M25.0182 58.7881H0.0756836V84.3433H25.0182V58.7881Z" fill="#333333"/>
<path d="M53.2284 29.8177V84.276H40.2399V43.1758H0.0756836V29.8177H53.2284Z" fill="#333333"/>
<path d="M25.0182 58.7881H0.0756836V84.3433H25.0182V58.7881Z" fill="#333333"/>
<path d="M53.2284 29.8177V84.276H40.2399V43.1758H0.0756836V29.8177H53.2284Z" fill="#333333"/>
<path d="M25.0182 58.7881H0.0756836V84.3433H25.0182V58.7881Z" fill="#C85145"/>
<path d="M0.0756836 29.8177H53.2284V84.276H40.2399V43.1758H0.0756836V29.8177Z" fill="#DC9A52"/>
<path d="M82.1119 0.224609V84.2757H67.6127V15.1472H0.0756836V0.224609H82.1119Z" fill="#5F9BA1"/>
</svg>
